<svg xmlns="http://www.w3.org/2000/svg" viewBox="0 0 800 200">
  <!-- 长城剪影 -->
  <defs>
    <linearGradient id="wallFade" x1="0" y1="0" x2="1" y2="0">
      <stop offset="0%" stop-color="#C41230" stop-opacity="0.03"/>
      <stop offset="30%" stop-color="#C41230" stop-opacity="0.08"/>
      <stop offset="70%" stop-color="#C41230" stop-opacity="0.08"/>
      <stop offset="100%" stop-color="#C41230" stop-opacity="0.03"/>
    </linearGradient>
  </defs>
  <!-- 长城城墙 -->
  <path fill="url(#wallFade)" d="M0 160 L40 150 L50 155 L80 140 L90 148 L120 130 L130 138 L160 125 L180 135 L200 120 L220 132 L250 118 L270 128 L300 115 L320 125 L350 112 L370 122 L400 110 L430 120 L450 108 L470 118 L500 105 L520 115 L550 102 L570 112 L600 100 L630 110 L650 98 L670 108 L700 95 L720 105 L750 93 L770 103 L800 90 L800 200 L0 200Z"/>
  <!-- 城垛 -->
  <g fill="url(#wallFade)">
    <rect x="35" y="145" width="12" height="15" rx="1"/>
    <rect x="75" y="135" width="12" height="15" rx="1"/>
    <rect x="115" y="125" width="12" height="15" rx="1"/>
    <rect x="175" y="130" width="12" height="15" rx="1"/>
    <rect x="215" y="115" width="12" height="15" rx="1"/>
    <rect x="265" y="113" width="12" height="15" rx="1"/>
    <rect x="315" y="110" width="12" height="15" rx="1"/>
    <rect x="365" y="117" width="12" height="15" rx="1"/>
    <rect x="425" y="115" width="12" height="15" rx="1"/>
    <rect x="495" y="100" width="12" height="15" rx="1"/>
    <rect x="595" y="95" width="12" height="15" rx="1"/>
    <rect x="690" y="90" width="12" height="15" rx="1"/>
  </g>
</svg>
